# xmcd
#
# Track frame offsets:
#  150
#  14187
#  30860
#  41187
#  51525
#  64825
#  76325
#  90910
#  101295
#  111752
#  121205
#  134835
#
# Disc length: 1936 seconds
#
# Revision: 1
# Processed by: cddbd v1.5.1PL0 Copyright (c) Steve Scherf et al.
# Submitted via: Collectorz.com_Music_Collector 6.9
#
DISCID=9f078e0c
DTITLE=Loretta Lynn - 36 All Time Greatest Hits [CD 3 Of 3)
DYEAR=1998
DGENRE=Country
TTITLE0=She's Got You
TTITLE1=Why Can't He Be You
TTITLE2=Red, White And Blue
TTITLE3=I Wanna Be Free
TTITLE4=Woman Of The World (Leave My World Alone)
TTITLE5=You Wanna Give Me A Lift
TTITLE6=Walking With My Memories
TTITLE7=To Make A Man (Feel Like A Man)
TTITLE8=You've Just Stepped In (From Stepping Out On Me)
TTITLE9=Your Squaw Is On The Warpath
TTITLE10=Wouldn't It Be Great
TTITLE11=Who's Gonna Take The Garbage Out
EXTD=
EXTT0=
EXTT1=
EXTT2=
EXTT3=
EXTT4=
EXTT5=
EXTT6=
EXTT7=
EXTT8=
EXTT9=
EXTT10=
EXTT11=
PLAYORDER=
